# xmcd
#
# Track frame offsets: 
#        150
#        23787
#        49545
#        70142
#        91152
#        111415
#        129500
#
# Disc length: 1898 seconds
#
# Revision: 6
# Processed by: cddbd v1.5.2PL0 Copyright (c) Steve Scherf et al.
# Submitted via: ExactAudioCopy v0.99pb5
#
DISCID=55076807
DTITLE=Various Artist - Eros [Madame and Ericsson]
DYEAR=1995
DGENRE=Ballad
TTITLE0=Richard Cocciante and Mina - Amore
TTITLE1=Celine Dion - The Power Of Love
TTITLE2=Ten Sharp - You
TTITLE3=Leonard Cohen - Dance Me To The End Of Love
TTITLE4=Bonnie Tyler - Total Eclipse Of The Heart
TTITLE5=Jean Manson - Avant De Nous Dire Adieu
TTITLE6=Adamo - Tombe La Neige
EXTD=
EXTT0=Riccardo Cocciante and Mina\n
EXTT1=Celine Dion\n
EXTT2=Ten Sharp\n
EXTT3=Leonard Cohen\n
EXTT4=Bonnie Tyler\n
EXTT5=Jean Manson\n
EXTT6=Adamo\n
PLAYORDER=
